{
	"asset":{
		"generator":"Khronos glTF Blender I/O v4.5.47",
		"version":"2.0"
	},
	"scene":0,
	"scenes":[
		{
			"name":"Scene",
			"nodes":[
				0,
				1,
				2,
				3,
				4,
				5,
				6,
				7,
				8
			]
		}
	],
	"nodes":[
		{
			"mesh":0,
			"name":"Circle",
			"scale":[
				0.7745859026908875,
				0.7745859026908875,
				0.7745859026908875
			],
			"translation":[
				0.030739624053239822,
				4.2993268966674805,
				0.7353690266609192
			]
		},
		{
			"mesh":1,
			"name":"Cube",
			"scale":[
				0.7321167588233948,
				1.9928885698318481,
				0.9762733578681946
			],
			"translation":[
				-0.008442491292953491,
				2.3096072673797607,
				0.7201197743415833
			]
		},
		{
			"mesh":2,
			"name":"Cube.001",
			"scale":[
				0.7321167588233948,
				1.9928885698318481,
				0.9762733578681946
			],
			"translation":[
				0.288026362657547,
				2.786677837371826,
				0.7123607397079468
			]
		},
		{
			"mesh":3,
			"name":"Cylinder",
			"scale":[
				0.09465259313583374,
				0.16516059637069702,
				0.09465259313583374
			],
			"translation":[
				0.44311031699180603,
				3.764284372329712,
				1.0204919576644897
			]
		},
		{
			"mesh":4,
			"name":"Cylinder.001",
			"scale":[
				0.09465259313583374,
				0.15306735038757324,
				0.09465259313583374
			],
			"translation":[
				0.44311031699180603,
				3.7533535957336426,
				0.45528948307037354
			]
		},
		{
			"mesh":5,
			"name":"Plane",
			"rotation":[
				0,
				0,
				-0.7071068286895752,
				0.7071068286895752
			],
			"scale":[
				0.3173636496067047,
				0.23029349744319916,
				0.08256576210260391
			],
			"translation":[
				0.5089072585105896,
				3.6210343837738037,
				1.0210121870040894
			]
		},
		{
			"mesh":6,
			"name":"Text",
			"rotation":[
				0.5004273653030396,
				0.5004274249076843,
				-0.4995723366737366,
				0.4995723366737366
			],
			"scale":[
				0.14062152802944183,
				0.14062148332595825,
				0.14062152802944183
			],
			"translation":[
				0.5866959095001221,
				3.9772393703460693,
				0.5916088223457336
			]
		},
		{
			"mesh":7,
			"name":"Text.001",
			"rotation":[
				0.5004273653030396,
				0.5004274249076843,
				-0.4995723366737366,
				0.4995723366737366
			],
			"scale":[
				0.14062152802944183,
				0.14062148332595825,
				0.14062152802944183
			],
			"translation":[
				0.5866959095001221,
				3.9772393703460693,
				1.2039687633514404
			]
		},
		{
			"mesh":8,
			"name":"Text.002",
			"rotation":[
				0.7071068286895752,
				0,
				0,
				0.7071068286895752
			],
			"scale":[
				0.3294004797935486,
				0.3294004797935486,
				0.3294004797935486
			],
			"translation":[
				-0.6740038394927979,
				2.864914894104004,
				1.697680115699768
			]
		}
	],
	"materials":[
		{
			"doubleSided":true,
			"name":"Material.008"
		},
		{
			"doubleSided":true,
			"name":"Material.007",
			"pbrMetallicRoughness":{
				"baseColorFactor":[
					0.4076296091079712,
					0.4076296091079712,
					0.4076296091079712,
					1
				],
				"metallicFactor":0,
				"roughnessFactor":0.5
			}
		},
		{
			"doubleSided":true,
			"name":"Material.001",
			"pbrMetallicRoughness":{
				"baseColorFactor":[
					0.0547582246363163,
					0.0547582246363163,
					0.0547582246363163,
					1
				],
				"metallicFactor":0,
				"roughnessFactor":0.5
			}
		},
		{
			"doubleSided":true,
			"name":"Material.002"
		},
		{
			"doubleSided":true,
			"name":"Material.003"
		},
		{
			"doubleSided":true,
			"name":"Material.004",
			"pbrMetallicRoughness":{
				"baseColorFactor":[
					0.2411373406648636,
					0.24450144171714783,
					0.23780512809753418,
					1
				],
				"metallicFactor":0,
				"roughnessFactor":0.5
			}
		},
		{
			"doubleSided":true,
			"name":"Material.005",
			"pbrMetallicRoughness":{
				"baseColorFactor":[
					0.8005985021591187,
					0,
					0.04686412215232849,
					1
				],
				"metallicFactor":0,
				"roughnessFactor":0.5
			}
		},
		{
			"doubleSided":true,
			"name":"Material.006",
			"pbrMetallicRoughness":{
				"baseColorFactor":[
					0,
					0.004663398955017328,
					0.8003387451171875,
					1
				],
				"metallicFactor":0,
				"roughnessFactor":0.5
			}
		},
		{
			"doubleSided":true,
			"name":"Material.009",
			"pbrMetallicRoughness":{
				"baseColorFactor":[
					0.8003553152084351,
					0.0013005114160478115,
					0,
					1
				],
				"metallicFactor":0,
				"roughnessFactor":0.5
			}
		},
		{
			"doubleSided":true,
			"name":"Material.010",
			"pbrMetallicRoughness":{
				"baseColorFactor":[
					0.0017586633330211043,
					0,
					0.8002825975418091,
					1
				],
				"metallicFactor":0,
				"roughnessFactor":0.5
			}
		},
		{
			"doubleSided":true,
			"name":"Material.011",
			"pbrMetallicRoughness":{
				"baseColorFactor":[
					0.2773652970790863,
					0.2773652970790863,
					0.2773652970790863,
					1
				],
				"metallicFactor":0,
				"roughnessFactor":0.5
			}
		}
	],
	"meshes":[
		{
			"name":"Circle.001",
			"primitives":[
				{
					"attributes":{
						"POSITION":0,
						"NORMAL":1,
						"TEXCOORD_0":2
					},
					"indices":3,
					"material":0
				}
			]
		},
		{
			"name":"Cube.001",
			"primitives":[
				{
					"attributes":{
						"POSITION":4,
						"NORMAL":5,
						"TEXCOORD_0":6
					},
					"indices":7,
					"material":1
				}
			]
		},
		{
			"name":"Cube.002",
			"primitives":[
				{
					"attributes":{
						"POSITION":8,
						"NORMAL":9,
						"TEXCOORD_0":10
					},
					"indices":11,
					"material":2
				}
			]
		},
		{
			"name":"Cylinder",
			"primitives":[
				{
					"attributes":{
						"POSITION":12,
						"NORMAL":13,
						"TEXCOORD_0":14
					},
					"indices":15,
					"material":3
				}
			]
		},
		{
			"name":"Cylinder.001",
			"primitives":[
				{
					"attributes":{
						"POSITION":16,
						"NORMAL":17,
						"TEXCOORD_0":18
					},
					"indices":15,
					"material":4
				}
			]
		},
		{
			"name":"Plane",
			"primitives":[
				{
					"attributes":{
						"POSITION":19,
						"NORMAL":20,
						"TEXCOORD_0":21
					},
					"indices":22,
					"material":5
				},
				{
					"attributes":{
						"POSITION":23,
						"NORMAL":24,
						"TEXCOORD_0":25
					},
					"indices":26,
					"material":6
				},
				{
					"attributes":{
						"POSITION":27,
						"NORMAL":28,
						"TEXCOORD_0":29
					},
					"indices":30,
					"material":7
				}
			]
		},
		{
			"name":"Text",
			"primitives":[
				{
					"attributes":{
						"POSITION":31,
						"NORMAL":32,
						"TEXCOORD_0":33
					},
					"indices":34,
					"material":8
				}
			]
		},
		{
			"name":"Text.001",
			"primitives":[
				{
					"attributes":{
						"POSITION":35,
						"NORMAL":36,
						"TEXCOORD_0":37
					},
					"indices":38,
					"material":9
				}
			]
		},
		{
			"name":"Text.002",
			"primitives":[
				{
					"attributes":{
						"POSITION":39,
						"NORMAL":40,
						"TEXCOORD_0":41
					},
					"indices":42,
					"material":10
				}
			]
		}
	],
	"accessors":[
		{
			"bufferView":0,
			"componentType":5126,
			"count":544,
			"max":[
				1.0391494035720825,
				1.8190258741378784,
				1.0391494035720825
			],
			"min":[
				-1.0391494035720825,
				0,
				-1.0391494035720825
			],
			"type":"VEC3"
		},
		{
			"bufferView":1,
			"componentType":5126,
			"count":544,
			"type":"VEC3"
		},
		{
			"bufferView":2,
			"componentType":5126,
			"count":544,
			"type":"VEC2"
		},
		{
			"bufferView":3,
			"componentType":5123,
			"count":3072,
			"type":"SCALAR"
		},
		{
			"bufferView":4,
			"componentType":5126,
			"count":188,
			"max":[
				0.9707196950912476,
				1,
				1
			],
			"min":[
				-1,
				-1,
				-1
			],
			"type":"VEC3"
		},
		{
			"bufferView":5,
			"componentType":5126,
			"count":188,
			"type":"VEC3"
		},
		{
			"bufferView":6,
			"componentType":5126,
			"count":188,
			"type":"VEC2"
		},
		{
			"bufferView":7,
			"componentType":5123,
			"count":420,
			"type":"SCALAR"
		},
		{
			"bufferView":8,
			"componentType":5126,
			"count":838,
			"max":[
				0.3986339569091797,
				0.08799948543310165,
				0.62159264087677
			],
			"min":[
				-0.11868369579315186,
				0,
				-0.6215922832489014
			],
			"type":"VEC3"
		},
		{
			"bufferView":9,
			"componentType":5126,
			"count":838,
			"type":"VEC3"
		},
		{
			"bufferView":10,
			"componentType":5126,
			"count":838,
			"type":"VEC2"
		},
		{
			"bufferView":11,
			"componentType":5123,
			"count":2208,
			"type":"SCALAR"
		},
		{
			"bufferView":12,
			"componentType":5126,
			"count":192,
			"max":[
				1,
				1,
				1
			],
			"min":[
				-1,
				-1,
				-1
			],
			"type":"VEC3"
		},
		{
			"bufferView":13,
			"componentType":5126,
			"count":192,
			"type":"VEC3"
		},
		{
			"bufferView":14,
			"componentType":5126,
			"count":192,
			"type":"VEC2"
		},
		{
			"bufferView":15,
			"componentType":5123,
			"count":372,
			"type":"SCALAR"
		},
		{
			"bufferView":16,
			"componentType":5126,
			"count":192,
			"max":[
				1,
				1,
				1
			],
			"min":[
				-1,
				-1,
				-1
			],
			"type":"VEC3"
		},
		{
			"bufferView":17,
			"componentType":5126,
			"count":192,
			"type":"VEC3"
		},
		{
			"bufferView":18,
			"componentType":5126,
			"count":192,
			"type":"VEC2"
		},
		{
			"bufferView":19,
			"componentType":5126,
			"count":96,
			"max":[
				1.0824153423309326,
				-0.27750951051712036,
				1.34835684299469
			],
			"min":[
				-0.8404363393783569,
				-0.6792258024215698,
				-8.25527572631836
			],
			"type":"VEC3"
		},
		{
			"bufferView":20,
			"componentType":5126,
			"count":96,
			"type":"VEC3"
		},
		{
			"bufferView":21,
			"componentType":5126,
			"count":96,
			"type":"VEC2"
		},
		{
			"bufferView":22,
			"componentType":5123,
			"count":168,
			"type":"SCALAR"
		},
		{
			"bufferView":23,
			"componentType":5126,
			"count":12,
			"max":[
				1.0185761451721191,
				-0.28105026483535767,
				-5.6010565757751465
			],
			"min":[
				0.4242287278175354,
				-0.33957207202911377,
				-8.201266288757324
			],
			"type":"VEC3"
		},
		{
			"bufferView":24,
			"componentType":5126,
			"count":12,
			"type":"VEC3"
		},
		{
			"bufferView":25,
			"componentType":5126,
			"count":12,
			"type":"VEC2"
		},
		{
			"bufferView":26,
			"componentType":5123,
			"count":18,
			"type":"SCALAR"
		},
		{
			"bufferView":27,
			"componentType":5126,
			"count":12,
			"max":[
				1.0278958082199097,
				-0.4707562327384949,
				1.2939790487289429
			],
			"min":[
				0.43433693051338196,
				-0.5292521715164185,
				-1.3054438829421997
			],
			"type":"VEC3"
		},
		{
			"bufferView":28,
			"componentType":5126,
			"count":12,
			"type":"VEC3"
		},
		{
			"bufferView":29,
			"componentType":5126,
			"count":12,
			"type":"VEC2"
		},
		{
			"bufferView":30,
			"componentType":5123,
			"count":18,
			"type":"SCALAR"
		},
		{
			"bufferView":31,
			"componentType":5126,
			"count":116,
			"max":[
				2.1389999389648438,
				0,
				0.009000000543892384
			],
			"min":[
				0.07500000298023224,
				0,
				-0.6910000443458557
			],
			"type":"VEC3"
		},
		{
			"bufferView":32,
			"componentType":5126,
			"count":116,
			"type":"VEC3"
		},
		{
			"bufferView":33,
			"componentType":5126,
			"count":116,
			"type":"VEC2"
		},
		{
			"bufferView":34,
			"componentType":5123,
			"count":336,
			"type":"SCALAR"
		},
		{
			"bufferView":35,
			"componentType":5126,
			"count":254,
			"max":[
				2.7249999046325684,
				0,
				0.009000000543892384
			],
			"min":[
				0.04800000041723251,
				0,
				-0.6910000443458557
			],
			"type":"VEC3"
		},
		{
			"bufferView":36,
			"componentType":5126,
			"count":254,
			"type":"VEC3"
		},
		{
			"bufferView":37,
			"componentType":5126,
			"count":254,
			"type":"VEC2"
		},
		{
			"bufferView":38,
			"componentType":5123,
			"count":750,
			"type":"SCALAR"
		},
		{
			"bufferView":39,
			"componentType":5126,
			"count":1093,
			"max":[
				3.9050002098083496,
				0,
				1.0089999437332153
			],
			"min":[
				0.04500000178813934,
				0,
				-0.6820000410079956
			],
			"type":"VEC3"
		},
		{
			"bufferView":40,
			"componentType":5126,
			"count":1093,
			"type":"VEC3"
		},
		{
			"bufferView":41,
			"componentType":5126,
			"count":1093,
			"type":"VEC2"
		},
		{
			"bufferView":42,
			"componentType":5123,
			"count":3210,
			"type":"SCALAR"
		}
	],
	"bufferViews":[
		{
			"buffer":0,
			"byteLength":6528,
			"byteOffset":0,
			"target":34962
		},
		{
			"buffer":0,
			"byteLength":6528,
			"byteOffset":6528,
			"target":34962
		},
		{
			"buffer":0,
			"byteLength":4352,
			"byteOffset":13056,
			"target":34962
		},
		{
			"buffer":0,
			"byteLength":6144,
			"byteOffset":17408,
			"target":34963
		},
		{
			"buffer":0,
			"byteLength":2256,
			"byteOffset":23552,
			"target":34962
		},
		{
			"buffer":0,
			"byteLength":2256,
			"byteOffset":25808,
			"target":34962
		},
		{
			"buffer":0,
			"byteLength":1504,
			"byteOffset":28064,
			"target":34962
		},
		{
			"buffer":0,
			"byteLength":840,
			"byteOffset":29568,
			"target":34963
		},
		{
			"buffer":0,
			"byteLength":10056,
			"byteOffset":30408,
			"target":34962
		},
		{
			"buffer":0,
			"byteLength":10056,
			"byteOffset":40464,
			"target":34962
		},
		{
			"buffer":0,
			"byteLength":6704,
			"byteOffset":50520,
			"target":34962
		},
		{
			"buffer":0,
			"byteLength":4416,
			"byteOffset":57224,
			"target":34963
		},
		{
			"buffer":0,
			"byteLength":2304,
			"byteOffset":61640,
			"target":34962
		},
		{
			"buffer":0,
			"byteLength":2304,
			"byteOffset":63944,
			"target":34962
		},
		{
			"buffer":0,
			"byteLength":1536,
			"byteOffset":66248,
			"target":34962
		},
		{
			"buffer":0,
			"byteLength":744,
			"byteOffset":67784,
			"target":34963
		},
		{
			"buffer":0,
			"byteLength":2304,
			"byteOffset":68528,
			"target":34962
		},
		{
			"buffer":0,
			"byteLength":2304,
			"byteOffset":70832,
			"target":34962
		},
		{
			"buffer":0,
			"byteLength":1536,
			"byteOffset":73136,
			"target":34962
		},
		{
			"buffer":0,
			"byteLength":1152,
			"byteOffset":74672,
			"target":34962
		},
		{
			"buffer":0,
			"byteLength":1152,
			"byteOffset":75824,
			"target":34962
		},
		{
			"buffer":0,
			"byteLength":768,
			"byteOffset":76976,
			"target":34962
		},
		{
			"buffer":0,
			"byteLength":336,
			"byteOffset":77744,
			"target":34963
		},
		{
			"buffer":0,
			"byteLength":144,
			"byteOffset":78080,
			"target":34962
		},
		{
			"buffer":0,
			"byteLength":144,
			"byteOffset":78224,
			"target":34962
		},
		{
			"buffer":0,
			"byteLength":96,
			"byteOffset":78368,
			"target":34962
		},
		{
			"buffer":0,
			"byteLength":36,
			"byteOffset":78464,
			"target":34963
		},
		{
			"buffer":0,
			"byteLength":144,
			"byteOffset":78500,
			"target":34962
		},
		{
			"buffer":0,
			"byteLength":144,
			"byteOffset":78644,
			"target":34962
		},
		{
			"buffer":0,
			"byteLength":96,
			"byteOffset":78788,
			"target":34962
		},
		{
			"buffer":0,
			"byteLength":36,
			"byteOffset":78884,
			"target":34963
		},
		{
			"buffer":0,
			"byteLength":1392,
			"byteOffset":78920,
			"target":34962
		},
		{
			"buffer":0,
			"byteLength":1392,
			"byteOffset":80312,
			"target":34962
		},
		{
			"buffer":0,
			"byteLength":928,
			"byteOffset":81704,
			"target":34962
		},
		{
			"buffer":0,
			"byteLength":672,
			"byteOffset":82632,
			"target":34963
		},
		{
			"buffer":0,
			"byteLength":3048,
			"byteOffset":83304,
			"target":34962
		},
		{
			"buffer":0,
			"byteLength":3048,
			"byteOffset":86352,
			"target":34962
		},
		{
			"buffer":0,
			"byteLength":2032,
			"byteOffset":89400,
			"target":34962
		},
		{
			"buffer":0,
			"byteLength":1500,
			"byteOffset":91432,
			"target":34963
		},
		{
			"buffer":0,
			"byteLength":13116,
			"byteOffset":92932,
			"target":34962
		},
		{
			"buffer":0,
			"byteLength":13116,
			"byteOffset":106048,
			"target":34962
		},
		{
			"buffer":0,
			"byteLength":8744,
			"byteOffset":119164,
			"target":34962
		},
		{
			"buffer":0,
			"byteLength":6420,
			"byteOffset":127908,
			"target":34963
		}
	],
	"buffers":[
		{
			"byteLength":134328,
			"uri":"waterdispenser.bin"
		}
	]
}
