{
	"asset":{
		"generator":"Khronos glTF Blender I/O v4.5.47",
		"version":"2.0"
	},
	"scene":0,
	"scenes":[
		{
			"name":"Scene",
			"nodes":[
				0
			]
		}
	],
	"nodes":[
		{
			"mesh":0,
			"name":"Plane",
			"rotation":[
				0,
				0,
				-0.7071068286895752,
				0.7071067690849304
			],
			"scale":[
				1.3918031454086304,
				1.3918031454086304,
				1.3918031454086304
			],
			"translation":[
				0,
				1.8064115047454834,
				0.04716220125555992
			]
		}
	],
	"materials":[
		{
			"doubleSided":true,
			"name":"Material.001",
			"pbrMetallicRoughness":{
				"baseColorTexture":{
					"index":0
				},
				"metallicFactor":0,
				"roughnessFactor":0.5
			}
		}
	],
	"meshes":[
		{
			"name":"Plane",
			"primitives":[
				{
					"attributes":{
						"POSITION":0,
						"NORMAL":1,
						"TEXCOORD_0":2
					},
					"indices":3,
					"material":0
				}
			]
		}
	],
	"textures":[
		{
			"sampler":0,
			"source":0
		}
	],
	"images":[
		{
			"mimeType":"image/png",
			"name":"Blue and White Modern Best Employee Instagram Story",
			"uri":"textures/Blue%20and%20White%20Modern%20Best%20Employee%20Instagram%20Story.png"
		}
	],
	"accessors":[
		{
			"bufferView":0,
			"componentType":5126,
			"count":4,
			"max":[
				0.6527110934257507,
				0.3283393979072571,
				0.43837404251098633
			],
			"min":[
				-0.9476912617683411,
				0.32833927869796753,
				-0.4995659291744232
			],
			"type":"VEC3"
		},
		{
			"bufferView":1,
			"componentType":5126,
			"count":4,
			"type":"VEC3"
		},
		{
			"bufferView":2,
			"componentType":5126,
			"count":4,
			"type":"VEC2"
		},
		{
			"bufferView":3,
			"componentType":5123,
			"count":6,
			"type":"SCALAR"
		}
	],
	"bufferViews":[
		{
			"buffer":0,
			"byteLength":48,
			"byteOffset":0,
			"target":34962
		},
		{
			"buffer":0,
			"byteLength":48,
			"byteOffset":48,
			"target":34962
		},
		{
			"buffer":0,
			"byteLength":32,
			"byteOffset":96,
			"target":34962
		},
		{
			"buffer":0,
			"byteLength":12,
			"byteOffset":128,
			"target":34963
		}
	],
	"samplers":[
		{
			"magFilter":9729,
			"minFilter":9987
		}
	],
	"buffers":[
		{
			"byteLength":140,
			"uri":"eotyPOSTER.bin"
		}
	]
}
