{
	"asset":{
		"generator":"Khronos glTF Blender I/O v4.5.47",
		"version":"2.0"
	},
	"scene":0,
	"scenes":[
		{
			"name":"Scene",
			"nodes":[
				0
			]
		}
	],
	"nodes":[
		{
			"mesh":0,
			"name":"Cylinder",
			"rotation":[
				0.7073813080787659,
				0,
				0,
				0.706832230091095
			],
			"translation":[
				0,
				2.4249377250671387,
				0
			]
		}
	],
	"materials":[
		{
			"doubleSided":true,
			"name":"Material.001",
			"pbrMetallicRoughness":{
				"baseColorFactor":[
					0,
					0,
					0,
					1
				],
				"metallicFactor":0.8454545736312866,
				"roughnessFactor":0.2136363685131073
			}
		},
		{
			"doubleSided":true,
			"name":"Material.002",
			"pbrMetallicRoughness":{
				"baseColorTexture":{
					"index":0
				},
				"metallicFactor":0,
				"roughnessFactor":0.5
			}
		}
	],
	"meshes":[
		{
			"name":"Cylinder",
			"primitives":[
				{
					"attributes":{
						"POSITION":0,
						"NORMAL":1,
						"TEXCOORD_0":2
					},
					"indices":3,
					"material":0
				},
				{
					"attributes":{
						"POSITION":4,
						"NORMAL":5,
						"TEXCOORD_0":6
					},
					"indices":7,
					"material":1
				}
			]
		}
	],
	"textures":[
		{
			"sampler":0,
			"source":0
		}
	],
	"images":[
		{
			"mimeType":"image/jpeg",
			"name":"CLOCKCLOCK",
			"uri":"textures/CLOCKCLOCK.jpg"
		}
	],
	"accessors":[
		{
			"bufferView":0,
			"componentType":5126,
			"count":4544,
			"max":[
				1,
				0.16139566898345947,
				0.9999996423721313
			],
			"min":[
				-1,
				-0.16139566898345947,
				-0.9999996423721313
			],
			"type":"VEC3"
		},
		{
			"bufferView":1,
			"componentType":5126,
			"count":4544,
			"type":"VEC3"
		},
		{
			"bufferView":2,
			"componentType":5126,
			"count":4544,
			"type":"VEC2"
		},
		{
			"bufferView":3,
			"componentType":5123,
			"count":7482,
			"type":"SCALAR"
		},
		{
			"bufferView":4,
			"componentType":5126,
			"count":32,
			"max":[
				0.8321463465690613,
				-0.061732370406389236,
				0.8321460485458374
			],
			"min":[
				-0.8321463465690613,
				-0.061732370406389236,
				-0.8321460485458374
			],
			"type":"VEC3"
		},
		{
			"bufferView":5,
			"componentType":5126,
			"count":32,
			"type":"VEC3"
		},
		{
			"bufferView":6,
			"componentType":5126,
			"count":32,
			"type":"VEC2"
		},
		{
			"bufferView":7,
			"componentType":5123,
			"count":90,
			"type":"SCALAR"
		}
	],
	"bufferViews":[
		{
			"buffer":0,
			"byteLength":54528,
			"byteOffset":0,
			"target":34962
		},
		{
			"buffer":0,
			"byteLength":54528,
			"byteOffset":54528,
			"target":34962
		},
		{
			"buffer":0,
			"byteLength":36352,
			"byteOffset":109056,
			"target":34962
		},
		{
			"buffer":0,
			"byteLength":14964,
			"byteOffset":145408,
			"target":34963
		},
		{
			"buffer":0,
			"byteLength":384,
			"byteOffset":160372,
			"target":34962
		},
		{
			"buffer":0,
			"byteLength":384,
			"byteOffset":160756,
			"target":34962
		},
		{
			"buffer":0,
			"byteLength":256,
			"byteOffset":161140,
			"target":34962
		},
		{
			"buffer":0,
			"byteLength":180,
			"byteOffset":161396,
			"target":34963
		}
	],
	"samplers":[
		{
			"magFilter":9729,
			"minFilter":9987
		}
	],
	"buffers":[
		{
			"byteLength":161576,
			"uri":"clock.bin"
		}
	]
}
