{
	"asset":{
		"generator":"Khronos glTF Blender I/O v4.5.47",
		"version":"2.0"
	},
	"scene":0,
	"scenes":[
		{
			"name":"Scene",
			"nodes":[
				0,
				1,
				2,
				3
			]
		}
	],
	"nodes":[
		{
			"mesh":0,
			"name":"rubber",
			"scale":[
				1.289145827293396,
				1.289145827293396,
				1.289145827293396
			],
			"translation":[
				-0.09191426634788513,
				1.3122533559799194,
				4.007717609405518
			]
		},
		{
			"mesh":1,
			"name":"pencil",
			"rotation":[
				0.2353757917881012,
				0.23537574708461761,
				-0.666782021522522,
				0.666782021522522
			],
			"scale":[
				0.18452291190624237,
				4.512124538421631,
				0.18452294170856476
			],
			"translation":[
				-0.988633394241333,
				0.19283656775951385,
				1.7029532194137573
			]
		},
		{
			"mesh":2,
			"name":"penpart",
			"scale":[
				1,
				1,
				0.05978305637836456
			],
			"translation":[
				1.766324520111084,
				0.44222357869148254,
				0.002590283751487732
			]
		},
		{
			"mesh":3,
			"name":"pen",
			"rotation":[
				0.7071068286895752,
				0.7071068286895752,
				0,
				0
			],
			"scale":[
				-0.30328547954559326,
				-3.8748223781585693,
				-0.30328550934791565
			],
			"translation":[
				0,
				0.23098397254943848,
				0
			]
		}
	],
	"materials":[
		{
			"doubleSided":true,
			"name":"dakrblue",
			"pbrMetallicRoughness":{
				"baseColorFactor":[
					0,
					0.004788220394402742,
					1,
					1
				]
			}
		},
		{
			"doubleSided":true,
			"name":"color"
		},
		{
			"doubleSided":true,
			"name":"white"
		},
		{
			"doubleSided":true,
			"name":"black"
		},
		{
			"doubleSided":true,
			"name":"red",
			"pbrMetallicRoughness":{
				"baseColorFactor":[
					1,
					0,
					0.011318293400108814,
					1
				]
			}
		},
		{
			"doubleSided":true,
			"name":"alumin",
			"pbrMetallicRoughness":{
				"baseColorFactor":[
					0.5576820373535156,
					0.5576820373535156,
					0.5576820373535156,
					1
				]
			}
		},
		{
			"doubleSided":true,
			"name":"wood",
			"pbrMetallicRoughness":{
				"baseColorFactor":[
					1,
					0.5490356683731079,
					0.16677549481391907,
					1
				]
			}
		},
		{
			"doubleSided":true,
			"name":"smth.001",
			"pbrMetallicRoughness":{
				"baseColorFactor":[
					0.760138750076294,
					0.760138750076294,
					0.760138750076294,
					1
				]
			}
		},
		{
			"doubleSided":true,
			"name":"black.001",
			"pbrMetallicRoughness":{
				"baseColorFactor":[
					0.0783495381474495,
					0.0783495381474495,
					0.0783495381474495,
					1
				]
			}
		},
		{
			"doubleSided":true,
			"name":"white.001"
		},
		{
			"doubleSided":true,
			"name":"metal",
			"pbrMetallicRoughness":{
				"baseColorFactor":[
					0.4699077010154724,
					0.4699077010154724,
					0.4699077010154724,
					1
				]
			}
		},
		{
			"doubleSided":true,
			"name":"black.002",
			"pbrMetallicRoughness":{
				"baseColorFactor":[
					0,
					0.0018699411302804947,
					0.1409907042980194,
					1
				]
			}
		},
		{
			"doubleSided":true,
			"name":"greyy"
		},
		{
			"doubleSided":true,
			"name":"black2",
			"pbrMetallicRoughness":{
				"baseColorFactor":[
					0,
					0,
					0,
					1
				]
			}
		}
	],
	"meshes":[
		{
			"name":"Cube.001",
			"primitives":[
				{
					"attributes":{
						"POSITION":0,
						"NORMAL":1
					},
					"indices":2,
					"material":0
				},
				{
					"attributes":{
						"POSITION":3,
						"NORMAL":4
					},
					"indices":5,
					"material":1
				},
				{
					"attributes":{
						"POSITION":6,
						"NORMAL":7
					},
					"indices":8,
					"material":2
				},
				{
					"attributes":{
						"POSITION":9,
						"NORMAL":10
					},
					"indices":11,
					"material":3
				}
			]
		},
		{
			"name":"Cilindro.001",
			"primitives":[
				{
					"attributes":{
						"POSITION":12,
						"NORMAL":13
					},
					"indices":14,
					"material":4
				},
				{
					"attributes":{
						"POSITION":15,
						"NORMAL":16
					},
					"indices":17,
					"material":5
				},
				{
					"attributes":{
						"POSITION":18,
						"NORMAL":19
					},
					"indices":20,
					"material":6
				},
				{
					"attributes":{
						"POSITION":21,
						"NORMAL":22
					},
					"indices":23,
					"material":7
				},
				{
					"attributes":{
						"POSITION":24,
						"NORMAL":25
					},
					"indices":26,
					"material":8
				},
				{
					"attributes":{
						"POSITION":27,
						"NORMAL":28
					},
					"indices":29,
					"material":9
				}
			]
		},
		{
			"name":"Plano.001",
			"primitives":[
				{
					"attributes":{
						"POSITION":30,
						"NORMAL":31
					},
					"indices":32,
					"material":10
				}
			]
		},
		{
			"name":"Cilindro",
			"primitives":[
				{
					"attributes":{
						"POSITION":33,
						"NORMAL":34
					},
					"indices":35,
					"material":10
				},
				{
					"attributes":{
						"POSITION":36,
						"NORMAL":37
					},
					"indices":38,
					"material":11
				},
				{
					"attributes":{
						"POSITION":39,
						"NORMAL":40
					},
					"indices":41,
					"material":12
				},
				{
					"attributes":{
						"POSITION":42,
						"NORMAL":43
					},
					"indices":44,
					"material":13
				}
			]
		}
	],
	"accessors":[
		{
			"bufferView":0,
			"componentType":5126,
			"count":200,
			"max":[
				1,
				-0.6593111753463745,
				-0.1156160831451416
			],
			"min":[
				-0.5557801723480225,
				-1.016663908958435,
				-0.8666105270385742
			],
			"type":"VEC3"
		},
		{
			"bufferView":1,
			"componentType":5126,
			"count":200,
			"type":"VEC3"
		},
		{
			"bufferView":2,
			"componentType":5123,
			"count":918,
			"type":"SCALAR"
		},
		{
			"bufferView":3,
			"componentType":5126,
			"count":36,
			"max":[
				0.960469663143158,
				-0.6854501366615295,
				-0.14958429336547852
			],
			"min":[
				-0.8613129258155823,
				-1,
				-0.8315474987030029
			],
			"type":"VEC3"
		},
		{
			"bufferView":4,
			"componentType":5126,
			"count":36,
			"type":"VEC3"
		},
		{
			"bufferView":5,
			"componentType":5123,
			"count":180,
			"type":"SCALAR"
		},
		{
			"bufferView":6,
			"componentType":5126,
			"count":189,
			"max":[
				0.9997661113739014,
				-0.6593111753463745,
				-0.11821025609970093
			],
			"min":[
				-0.5557801723480225,
				-0.9651187062263489,
				-0.8666105270385742
			],
			"type":"VEC3"
		},
		{
			"bufferView":7,
			"componentType":5126,
			"count":189,
			"type":"VEC3"
		},
		{
			"bufferView":8,
			"componentType":5123,
			"count":684,
			"type":"SCALAR"
		},
		{
			"bufferView":9,
			"componentType":5126,
			"count":72,
			"max":[
				0.880423367023468,
				-0.6593111753463745,
				-0.2813309133052826
			],
			"min":[
				0.17930983006954193,
				-0.6593111753463745,
				-0.6910218000411987
			],
			"type":"VEC3"
		},
		{
			"bufferView":10,
			"componentType":5126,
			"count":72,
			"type":"VEC3"
		},
		{
			"bufferView":11,
			"componentType":5123,
			"count":144,
			"type":"SCALAR"
		},
		{
			"bufferView":12,
			"componentType":5126,
			"count":224,
			"max":[
				1.0191468000411987,
				0.9333469271659851,
				1.0225203037261963
			],
			"min":[
				-1.0647305250167847,
				-0.8237080574035645,
				-1.0283644199371338
			],
			"type":"VEC3"
		},
		{
			"bufferView":13,
			"componentType":5126,
			"count":224,
			"type":"VEC3"
		},
		{
			"bufferView":14,
			"componentType":5123,
			"count":942,
			"type":"SCALAR"
		},
		{
			"bufferView":15,
			"componentType":5126,
			"count":977,
			"max":[
				1.0659953355789185,
				0.9333469271659851,
				1.0813934803009033
			],
			"min":[
				-1.1228926181793213,
				0.7430643439292908,
				-1.0923620462417603
			],
			"type":"VEC3"
		},
		{
			"bufferView":16,
			"componentType":5126,
			"count":977,
			"type":"VEC3"
		},
		{
			"bufferView":17,
			"componentType":5123,
			"count":5619,
			"type":"SCALAR"
		},
		{
			"bufferView":18,
			"componentType":5126,
			"count":138,
			"max":[
				0.9990000128746033,
				-0.8179088830947876,
				0.9984627962112427
			],
			"min":[
				-0.9990001916885376,
				-0.9432321190834045,
				-0.9984627366065979
			],
			"type":"VEC3"
		},
		{
			"bufferView":19,
			"componentType":5126,
			"count":138,
			"type":"VEC3"
		},
		{
			"bufferView":20,
			"componentType":5123,
			"count":576,
			"type":"SCALAR"
		},
		{
			"bufferView":21,
			"componentType":5126,
			"count":192,
			"max":[
				0.9766208529472351,
				1.001593828201294,
				0.9923735857009888
			],
			"min":[
				-1.0422542095184326,
				0.9300853610038757,
				-1.0055899620056152
			],
			"type":"VEC3"
		},
		{
			"bufferView":22,
			"componentType":5126,
			"count":192,
			"type":"VEC3"
		},
		{
			"bufferView":23,
			"componentType":5123,
			"count":1050,
			"type":"SCALAR"
		},
		{
			"bufferView":24,
			"componentType":5126,
			"count":64,
			"max":[
				0.2337535321712494,
				-0.9432321190834045,
				0.2337532490491867
			],
			"min":[
				-0.23375338315963745,
				-0.9756755232810974,
				-0.23375368118286133
			],
			"type":"VEC3"
		},
		{
			"bufferView":25,
			"componentType":5126,
			"count":64,
			"type":"VEC3"
		},
		{
			"bufferView":26,
			"componentType":5123,
			"count":282,
			"type":"SCALAR"
		},
		{
			"bufferView":27,
			"componentType":5126,
			"count":8,
			"max":[
				-0.8360235691070557,
				0.6484745740890503,
				0.5554123520851135
			],
			"min":[
				-1.0059541463851929,
				0.10841604322195053,
				-0.00011199468281120062
			],
			"type":"VEC3"
		},
		{
			"bufferView":28,
			"componentType":5126,
			"count":8,
			"type":"VEC3"
		},
		{
			"bufferView":29,
			"componentType":5123,
			"count":18,
			"type":"SCALAR"
		},
		{
			"bufferView":30,
			"componentType":5126,
			"count":214,
			"max":[
				1,
				0.06199793517589569,
				1
			],
			"min":[
				-1,
				-0.035296108573675156,
				-1
			],
			"type":"VEC3"
		},
		{
			"bufferView":31,
			"componentType":5126,
			"count":214,
			"type":"VEC3"
		},
		{
			"bufferView":32,
			"componentType":5123,
			"count":372,
			"type":"SCALAR"
		},
		{
			"bufferView":33,
			"componentType":5126,
			"count":600,
			"max":[
				0.8966724872589111,
				1,
				0.9745675325393677
			],
			"min":[
				-0.8966724872589111,
				-0.8578998446464539,
				-0.9745675325393677
			],
			"type":"VEC3"
		},
		{
			"bufferView":34,
			"componentType":5126,
			"count":600,
			"type":"VEC3"
		},
		{
			"bufferView":35,
			"componentType":5123,
			"count":3018,
			"type":"SCALAR"
		},
		{
			"bufferView":36,
			"componentType":5126,
			"count":256,
			"max":[
				0.8966724872589111,
				0.8319982290267944,
				0.8966723680496216
			],
			"min":[
				-0.8966724872589111,
				0.4220539629459381,
				-0.8966725468635559
			],
			"type":"VEC3"
		},
		{
			"bufferView":37,
			"componentType":5126,
			"count":256,
			"type":"VEC3"
		},
		{
			"bufferView":38,
			"componentType":5123,
			"count":1344,
			"type":"SCALAR"
		},
		{
			"bufferView":39,
			"componentType":5126,
			"count":376,
			"max":[
				0.7989229559898376,
				1.036492943763733,
				0.9745675325393677
			],
			"min":[
				-0.7989228963851929,
				-0.7518622875213623,
				-0.9745675325393677
			],
			"type":"VEC3"
		},
		{
			"bufferView":40,
			"componentType":5126,
			"count":376,
			"type":"VEC3"
		},
		{
			"bufferView":41,
			"componentType":5123,
			"count":1698,
			"type":"SCALAR"
		},
		{
			"bufferView":42,
			"componentType":5126,
			"count":2472,
			"max":[
				0.05002952739596367,
				1.0406036376953125,
				0.05260863155126572
			],
			"min":[
				-0.055006299167871475,
				1.0323823690414429,
				-0.052427224814891815
			],
			"type":"VEC3"
		},
		{
			"bufferView":43,
			"componentType":5126,
			"count":2472,
			"type":"VEC3"
		},
		{
			"bufferView":44,
			"componentType":5123,
			"count":2880,
			"type":"SCALAR"
		}
	],
	"bufferViews":[
		{
			"buffer":0,
			"byteLength":2400,
			"byteOffset":0,
			"target":34962
		},
		{
			"buffer":0,
			"byteLength":2400,
			"byteOffset":2400,
			"target":34962
		},
		{
			"buffer":0,
			"byteLength":1836,
			"byteOffset":4800,
			"target":34963
		},
		{
			"buffer":0,
			"byteLength":432,
			"byteOffset":6636,
			"target":34962
		},
		{
			"buffer":0,
			"byteLength":432,
			"byteOffset":7068,
			"target":34962
		},
		{
			"buffer":0,
			"byteLength":360,
			"byteOffset":7500,
			"target":34963
		},
		{
			"buffer":0,
			"byteLength":2268,
			"byteOffset":7860,
			"target":34962
		},
		{
			"buffer":0,
			"byteLength":2268,
			"byteOffset":10128,
			"target":34962
		},
		{
			"buffer":0,
			"byteLength":1368,
			"byteOffset":12396,
			"target":34963
		},
		{
			"buffer":0,
			"byteLength":864,
			"byteOffset":13764,
			"target":34962
		},
		{
			"buffer":0,
			"byteLength":864,
			"byteOffset":14628,
			"target":34962
		},
		{
			"buffer":0,
			"byteLength":288,
			"byteOffset":15492,
			"target":34963
		},
		{
			"buffer":0,
			"byteLength":2688,
			"byteOffset":15780,
			"target":34962
		},
		{
			"buffer":0,
			"byteLength":2688,
			"byteOffset":18468,
			"target":34962
		},
		{
			"buffer":0,
			"byteLength":1884,
			"byteOffset":21156,
			"target":34963
		},
		{
			"buffer":0,
			"byteLength":11724,
			"byteOffset":23040,
			"target":34962
		},
		{
			"buffer":0,
			"byteLength":11724,
			"byteOffset":34764,
			"target":34962
		},
		{
			"buffer":0,
			"byteLength":11238,
			"byteOffset":46488,
			"target":34963
		},
		{
			"buffer":0,
			"byteLength":1656,
			"byteOffset":57728,
			"target":34962
		},
		{
			"buffer":0,
			"byteLength":1656,
			"byteOffset":59384,
			"target":34962
		},
		{
			"buffer":0,
			"byteLength":1152,
			"byteOffset":61040,
			"target":34963
		},
		{
			"buffer":0,
			"byteLength":2304,
			"byteOffset":62192,
			"target":34962
		},
		{
			"buffer":0,
			"byteLength":2304,
			"byteOffset":64496,
			"target":34962
		},
		{
			"buffer":0,
			"byteLength":2100,
			"byteOffset":66800,
			"target":34963
		},
		{
			"buffer":0,
			"byteLength":768,
			"byteOffset":68900,
			"target":34962
		},
		{
			"buffer":0,
			"byteLength":768,
			"byteOffset":69668,
			"target":34962
		},
		{
			"buffer":0,
			"byteLength":564,
			"byteOffset":70436,
			"target":34963
		},
		{
			"buffer":0,
			"byteLength":96,
			"byteOffset":71000,
			"target":34962
		},
		{
			"buffer":0,
			"byteLength":96,
			"byteOffset":71096,
			"target":34962
		},
		{
			"buffer":0,
			"byteLength":36,
			"byteOffset":71192,
			"target":34963
		},
		{
			"buffer":0,
			"byteLength":2568,
			"byteOffset":71228,
			"target":34962
		},
		{
			"buffer":0,
			"byteLength":2568,
			"byteOffset":73796,
			"target":34962
		},
		{
			"buffer":0,
			"byteLength":744,
			"byteOffset":76364,
			"target":34963
		},
		{
			"buffer":0,
			"byteLength":7200,
			"byteOffset":77108,
			"target":34962
		},
		{
			"buffer":0,
			"byteLength":7200,
			"byteOffset":84308,
			"target":34962
		},
		{
			"buffer":0,
			"byteLength":6036,
			"byteOffset":91508,
			"target":34963
		},
		{
			"buffer":0,
			"byteLength":3072,
			"byteOffset":97544,
			"target":34962
		},
		{
			"buffer":0,
			"byteLength":3072,
			"byteOffset":100616,
			"target":34962
		},
		{
			"buffer":0,
			"byteLength":2688,
			"byteOffset":103688,
			"target":34963
		},
		{
			"buffer":0,
			"byteLength":4512,
			"byteOffset":106376,
			"target":34962
		},
		{
			"buffer":0,
			"byteLength":4512,
			"byteOffset":110888,
			"target":34962
		},
		{
			"buffer":0,
			"byteLength":3396,
			"byteOffset":115400,
			"target":34963
		},
		{
			"buffer":0,
			"byteLength":29664,
			"byteOffset":118796,
			"target":34962
		},
		{
			"buffer":0,
			"byteLength":29664,
			"byteOffset":148460,
			"target":34962
		},
		{
			"buffer":0,
			"byteLength":5760,
			"byteOffset":178124,
			"target":34963
		}
	],
	"buffers":[
		{
			"byteLength":183884,
			"uri":"stationary.bin"
		}
	]
}
