{
	"asset":{
		"generator":"Khronos glTF Blender I/O v4.5.47",
		"version":"2.0"
	},
	"extensionsUsed":[
		"KHR_materials_transmission",
		"KHR_materials_ior"
	],
	"scene":0,
	"scenes":[
		{
			"name":"Scene",
			"nodes":[
				1
			]
		}
	],
	"nodes":[
		{
			"mesh":0,
			"name":"Pile_9"
		},
		{
			"children":[
				0
			],
			"name":"Paper_pile_9",
			"translation":[
				-0.4898599088191986,
				0,
				-0.16291318833827972
			]
		}
	],
	"materials":[
		{
			"doubleSided":true,
			"extensions":{
				"KHR_materials_transmission":{
					"transmissionFactor":0.30000001192092896
				},
				"KHR_materials_ior":{
					"ior":1.4500000476837158
				}
			},
			"name":"paper_txt",
			"normalTexture":{
				"index":0
			},
			"pbrMetallicRoughness":{
				"baseColorTexture":{
					"index":1
				},
				"metallicFactor":0,
				"roughnessFactor":0.5
			}
		},
		{
			"doubleSided":true,
			"extensions":{
				"KHR_materials_transmission":{
					"transmissionFactor":0.30000001192092896
				},
				"KHR_materials_ior":{
					"ior":1.4500000476837158
				}
			},
			"name":"paper",
			"normalTexture":{
				"index":2
			},
			"pbrMetallicRoughness":{
				"metallicFactor":0,
				"roughnessFactor":0.5
			}
		}
	],
	"meshes":[
		{
			"name":"Plane.3082",
			"primitives":[
				{
					"attributes":{
						"POSITION":0,
						"NORMAL":1,
						"TEXCOORD_0":2
					},
					"indices":3,
					"material":0
				},
				{
					"attributes":{
						"POSITION":4,
						"NORMAL":5,
						"TEXCOORD_0":6
					},
					"indices":7,
					"material":1
				}
			]
		}
	],
	"textures":[
		{
			"sampler":0,
			"source":0
		},
		{
			"sampler":0,
			"source":1
		},
		{
			"sampler":0,
			"source":0
		}
	],
	"images":[
		{
			"mimeType":"image/jpeg",
			"name":"Document_normal",
			"uri":"textures/Document_normal.jpg"
		},
		{
			"mimeType":"image/jpeg",
			"name":"Document_color",
			"uri":"textures/Document_color.jpg"
		}
	],
	"accessors":[
		{
			"bufferView":0,
			"componentType":5126,
			"count":96,
			"max":[
				0.11050604283809662,
				0.10114799439907074,
				0.15234068036079407
			],
			"min":[
				-0.11050602793693542,
				0.09936735779047012,
				-0.15234065055847168
			],
			"type":"VEC3"
		},
		{
			"bufferView":1,
			"componentType":5126,
			"count":96,
			"type":"VEC3"
		},
		{
			"bufferView":2,
			"componentType":5126,
			"count":96,
			"type":"VEC2"
		},
		{
			"bufferView":3,
			"componentType":5123,
			"count":462,
			"type":"SCALAR"
		},
		{
			"bufferView":4,
			"componentType":5126,
			"count":65472,
			"max":[
				0.1258663833141327,
				0.10114884376525879,
				0.16713814437389374
			],
			"min":[
				-0.12916851043701172,
				9.127745579462498e-05,
				-0.16838064789772034
			],
			"type":"VEC3"
		},
		{
			"bufferView":5,
			"componentType":5126,
			"count":65472,
			"type":"VEC3"
		},
		{
			"bufferView":6,
			"componentType":5126,
			"count":65472,
			"type":"VEC2"
		},
		{
			"bufferView":7,
			"componentType":5123,
			"count":196764,
			"type":"SCALAR"
		}
	],
	"bufferViews":[
		{
			"buffer":0,
			"byteLength":1152,
			"byteOffset":0,
			"target":34962
		},
		{
			"buffer":0,
			"byteLength":1152,
			"byteOffset":1152,
			"target":34962
		},
		{
			"buffer":0,
			"byteLength":768,
			"byteOffset":2304,
			"target":34962
		},
		{
			"buffer":0,
			"byteLength":924,
			"byteOffset":3072,
			"target":34963
		},
		{
			"buffer":0,
			"byteLength":785664,
			"byteOffset":3996,
			"target":34962
		},
		{
			"buffer":0,
			"byteLength":785664,
			"byteOffset":789660,
			"target":34962
		},
		{
			"buffer":0,
			"byteLength":523776,
			"byteOffset":1575324,
			"target":34962
		},
		{
			"buffer":0,
			"byteLength":393528,
			"byteOffset":2099100,
			"target":34963
		}
	],
	"samplers":[
		{
			"magFilter":9729,
			"minFilter":9987
		}
	],
	"buffers":[
		{
			"byteLength":2492628,
			"uri":"updatedpaperpile.bin"
		}
	]
}
