{
	"asset":{
		"generator":"Khronos glTF Blender I/O v5.0.16",
		"version":"2.0"
	},
	"scene":0,
	"scenes":[
		{
			"name":"Scene",
			"nodes":[
				3,
				4,
				5,
				6,
				7,
				8,
				9,
				10,
				11,
				12,
				13
			]
		}
	],
	"nodes":[
		{
			"mesh":0,
			"name":"Object_2"
		},
		{
			"mesh":1,
			"name":"Object_3"
		},
		{
			"children":[
				0,
				1
			],
			"name":"CCTV Camera Low-poly 3D model.obj.cleaner.materialmerger.gles"
		},
		{
			"children":[
				2
			],
			"name":"securitycam",
			"rotation":[
				-0.70710688829422,
				0,
				0,
				0.7071066498756409
			],
			"scale":[
				0.16555669903755188,
				0.16555672883987427,
				0.16555672883987427
			],
			"translation":[
				-0.19551536440849304,
				2.4307808876037598,
				0.529977560043335
			]
		},
		{
			"mesh":2,
			"name":"B\u00e9zierCurve.007",
			"rotation":[
				0.7297430038452148,
				0.02989066392183304,
				-0.013374609872698784,
				0.6829369068145752
			],
			"scale":[
				3.2619240283966064,
				3.2619237899780273,
				3.2619245052337646
			],
			"translation":[
				0.4641234874725342,
				8.97834300994873,
				1.7210640907287598
			]
		},
		{
			"mesh":3,
			"name":"B\u00e9zierCurve.001",
			"rotation":[
				0.5954477787017822,
				0.4145611822605133,
				-0.31824517250061035,
				0.6101648211479187
			],
			"scale":[
				3.2619242668151855,
				3.2619240283966064,
				3.2619245052337646
			],
			"translation":[
				-2.0610618591308594,
				9.251830101013184,
				2.8761563301086426
			]
		},
		{
			"mesh":4,
			"name":"B\u00e9zierCurve.002",
			"rotation":[
				0.6921400427818298,
				0.3748280107975006,
				0.11393538862466812,
				0.6061888933181763
			],
			"scale":[
				3.2619242668151855,
				3.2619242668151855,
				3.2619245052337646
			],
			"translation":[
				-0.6998793482780457,
				9.222583770751953,
				2.0265402793884277
			]
		},
		{
			"mesh":5,
			"name":"B\u00e9zierCurve.003",
			"rotation":[
				-0.015842434018850327,
				0.7301831841468811,
				0.6825529336929321,
				0.02651407942175865
			],
			"scale":[
				3.2619242668151855,
				3.2619240283966064,
				3.2619240283966064
			],
			"translation":[
				-1.2988483905792236,
				10.431451797485352,
				1.1177717447280884
			]
		},
		{
			"mesh":6,
			"name":"B\u00e9zierCurve.004",
			"rotation":[
				0.6623573899269104,
				0.14100360870361328,
				-0.15306590497493744,
				0.7197023630142212
			],
			"scale":[
				3.2619240283966064,
				3.2619245052337646,
				3.2619242668151855
			],
			"translation":[
				-0.9321404695510864,
				9.668004035949707,
				2.2754101753234863
			]
		},
		{
			"mesh":7,
			"name":"B\u00e9zierCurve.005",
			"rotation":[
				0.5423429608345032,
				0.10732720047235489,
				-0.07332565635442734,
				0.8300412893295288
			],
			"scale":[
				3.2619240283966064,
				3.2619237899780273,
				3.2619237899780273
			],
			"translation":[
				0.15460461378097534,
				8.344415664672852,
				2.144929885864258
			]
		},
		{
			"mesh":8,
			"name":"B\u00e9zierCurve.006",
			"rotation":[
				0.6310238838195801,
				0.22185876965522766,
				-0.08434169739484787,
				0.7385622262954712
			],
			"scale":[
				3.2619242668151855,
				3.2619240283966064,
				3.2619245052337646
			],
			"translation":[
				-1.051679015159607,
				9.13505744934082,
				2.360738754272461
			]
		},
		{
			"mesh":9,
			"name":"B\u00e9zierCurve.008",
			"rotation":[
				0.2555469870567322,
				0.48658204078674316,
				0.5173630714416504,
				0.655949056148529
			],
			"scale":[
				3.2619240283966064,
				3.2619240283966064,
				3.2619240283966064
			],
			"translation":[
				1.6534911394119263,
				9.577723503112793,
				2.676469326019287
			]
		},
		{
			"mesh":10,
			"name":"B\u00e9zierCurve.009",
			"rotation":[
				0.556607723236084,
				-0.001180084072984755,
				-0.09676632285118103,
				0.8251198530197144
			],
			"scale":[
				3.2619237899780273,
				3.2619242668151855,
				3.2619240283966064
			],
			"translation":[
				1.5406314134597778,
				8.468335151672363,
				3.152059555053711
			]
		},
		{
			"mesh":11,
			"name":"B\u00e9zierCurve.010",
			"rotation":[
				0.6706979870796204,
				-0.006680009886622429,
				0.07747336477041245,
				0.7376431822776794
			],
			"scale":[
				3.2619240283966064,
				3.2619235515594482,
				3.2619240283966064
			],
			"translation":[
				1.4509044885635376,
				8.398736000061035,
				3.2702584266662598
			]
		}
	],
	"materials":[
		{
			"doubleSided":true,
			"name":"Material.003",
			"pbrMetallicRoughness":{
				"baseColorFactor":[
					0.1600586175918579,
					0.1600586175918579,
					0.1600586175918579,
					1
				],
				"roughnessFactor":0.31599998474121094
			}
		},
		{
			"doubleSided":true,
			"name":"Material.001",
			"pbrMetallicRoughness":{
				"baseColorFactor":[
					0.37431666254997253,
					0.33176738023757935,
					0.2657610774040222,
					1
				],
				"metallicFactor":0,
				"roughnessFactor":0.699999988079071
			}
		},
		{
			"doubleSided":true,
			"name":"Material.002",
			"pbrMetallicRoughness":{
				"baseColorFactor":[
					0.8002663850784302,
					0.1627291738986969,
					0.11548563092947006,
					1
				],
				"metallicFactor":0,
				"roughnessFactor":0.5
			}
		}
	],
	"meshes":[
		{
			"name":"Object_0",
			"primitives":[
				{
					"attributes":{
						"POSITION":0,
						"NORMAL":1,
						"TEXCOORD_0":2
					},
					"indices":3,
					"material":0
				}
			]
		},
		{
			"name":"Object_1",
			"primitives":[
				{
					"attributes":{
						"POSITION":4,
						"NORMAL":5,
						"TEXCOORD_0":6
					},
					"indices":7,
					"material":1
				}
			]
		},
		{
			"name":"B\u00e9zierCurve.007",
			"primitives":[
				{
					"attributes":{
						"POSITION":8,
						"NORMAL":9,
						"TEXCOORD_0":10
					},
					"indices":11,
					"material":2
				}
			]
		},
		{
			"name":"B\u00e9zierCurve.008",
			"primitives":[
				{
					"attributes":{
						"POSITION":12,
						"NORMAL":13,
						"TEXCOORD_0":14
					},
					"indices":11,
					"material":2
				}
			]
		},
		{
			"name":"B\u00e9zierCurve.009",
			"primitives":[
				{
					"attributes":{
						"POSITION":15,
						"NORMAL":16,
						"TEXCOORD_0":17
					},
					"indices":11,
					"material":2
				}
			]
		},
		{
			"name":"B\u00e9zierCurve.010",
			"primitives":[
				{
					"attributes":{
						"POSITION":18,
						"NORMAL":19,
						"TEXCOORD_0":20
					},
					"indices":11,
					"material":2
				}
			]
		},
		{
			"name":"B\u00e9zierCurve.011",
			"primitives":[
				{
					"attributes":{
						"POSITION":21,
						"NORMAL":22,
						"TEXCOORD_0":23
					},
					"indices":11,
					"material":2
				}
			]
		},
		{
			"name":"B\u00e9zierCurve.012",
			"primitives":[
				{
					"attributes":{
						"POSITION":24,
						"NORMAL":25,
						"TEXCOORD_0":26
					},
					"indices":11,
					"material":2
				}
			]
		},
		{
			"name":"B\u00e9zierCurve.013",
			"primitives":[
				{
					"attributes":{
						"POSITION":27,
						"NORMAL":28,
						"TEXCOORD_0":29
					},
					"indices":11,
					"material":2
				}
			]
		},
		{
			"name":"B\u00e9zierCurve.014",
			"primitives":[
				{
					"attributes":{
						"POSITION":30,
						"NORMAL":31,
						"TEXCOORD_0":32
					},
					"indices":11,
					"material":2
				}
			]
		},
		{
			"name":"B\u00e9zierCurve.015",
			"primitives":[
				{
					"attributes":{
						"POSITION":33,
						"NORMAL":34,
						"TEXCOORD_0":35
					},
					"indices":11,
					"material":2
				}
			]
		},
		{
			"name":"B\u00e9zierCurve.001",
			"primitives":[
				{
					"attributes":{
						"POSITION":36,
						"NORMAL":37,
						"TEXCOORD_0":38
					},
					"indices":11,
					"material":2
				}
			]
		}
	],
	"accessors":[
		{
			"bufferView":0,
			"componentType":5126,
			"count":4,
			"max":[
				10.284500122070312,
				-89.29560089111328,
				58.3297004699707
			],
			"min":[
				-10.284500122070312,
				-89.29560089111328,
				37.44369888305664
			],
			"type":"VEC3"
		},
		{
			"bufferView":1,
			"componentType":5126,
			"count":4,
			"type":"VEC3"
		},
		{
			"bufferView":2,
			"componentType":5126,
			"count":4,
			"type":"VEC2"
		},
		{
			"bufferView":3,
			"componentType":5123,
			"count":6,
			"type":"SCALAR"
		},
		{
			"bufferView":4,
			"componentType":5126,
			"count":1195,
			"max":[
				15.664899826049805,
				-24.79360008239746,
				60.74440002441406
			],
			"min":[
				-15.664899826049805,
				-100,
				31.28350067138672
			],
			"type":"VEC3"
		},
		{
			"bufferView":5,
			"componentType":5126,
			"count":1195,
			"type":"VEC3"
		},
		{
			"bufferView":6,
			"componentType":5126,
			"count":1195,
			"type":"VEC2"
		},
		{
			"bufferView":7,
			"componentType":5123,
			"count":3099,
			"type":"SCALAR"
		},
		{
			"bufferView":8,
			"componentType":5126,
			"count":845,
			"max":[
				1.42018723487854,
				0.8561583161354065,
				0.06609965115785599
			],
			"min":[
				-0.5090034604072571,
				-2.671250104904175,
				-1.1266252994537354
			],
			"type":"VEC3"
		},
		{
			"bufferView":9,
			"componentType":5126,
			"count":845,
			"type":"VEC3"
		},
		{
			"bufferView":10,
			"componentType":5126,
			"count":845,
			"type":"VEC2"
		},
		{
			"bufferView":11,
			"componentType":5123,
			"count":4608,
			"type":"SCALAR"
		},
		{
			"bufferView":12,
			"componentType":5126,
			"count":845,
			"max":[
				1.42018723487854,
				0.8561583161354065,
				0.06609965115785599
			],
			"min":[
				-0.5090034604072571,
				-2.671250104904175,
				-1.1266252994537354
			],
			"type":"VEC3"
		},
		{
			"bufferView":13,
			"componentType":5126,
			"count":845,
			"type":"VEC3"
		},
		{
			"bufferView":14,
			"componentType":5126,
			"count":845,
			"type":"VEC2"
		},
		{
			"bufferView":15,
			"componentType":5126,
			"count":845,
			"max":[
				1.42018723487854,
				0.8561583161354065,
				0.06609965115785599
			],
			"min":[
				-0.5090034604072571,
				-2.671250104904175,
				-1.1266252994537354
			],
			"type":"VEC3"
		},
		{
			"bufferView":16,
			"componentType":5126,
			"count":845,
			"type":"VEC3"
		},
		{
			"bufferView":17,
			"componentType":5126,
			"count":845,
			"type":"VEC2"
		},
		{
			"bufferView":18,
			"componentType":5126,
			"count":845,
			"max":[
				1.42018723487854,
				0.8561583161354065,
				0.06609965115785599
			],
			"min":[
				-0.5090034604072571,
				-2.671250104904175,
				-1.1266252994537354
			],
			"type":"VEC3"
		},
		{
			"bufferView":19,
			"componentType":5126,
			"count":845,
			"type":"VEC3"
		},
		{
			"bufferView":20,
			"componentType":5126,
			"count":845,
			"type":"VEC2"
		},
		{
			"bufferView":21,
			"componentType":5126,
			"count":845,
			"max":[
				1.42018723487854,
				0.8561583161354065,
				0.06609965115785599
			],
			"min":[
				-0.5090034604072571,
				-2.671250104904175,
				-1.1266252994537354
			],
			"type":"VEC3"
		},
		{
			"bufferView":22,
			"componentType":5126,
			"count":845,
			"type":"VEC3"
		},
		{
			"bufferView":23,
			"componentType":5126,
			"count":845,
			"type":"VEC2"
		},
		{
			"bufferView":24,
			"componentType":5126,
			"count":845,
			"max":[
				1.42018723487854,
				0.8561583161354065,
				0.06609965115785599
			],
			"min":[
				-0.5090034604072571,
				-2.671250104904175,
				-1.1266252994537354
			],
			"type":"VEC3"
		},
		{
			"bufferView":25,
			"componentType":5126,
			"count":845,
			"type":"VEC3"
		},
		{
			"bufferView":26,
			"componentType":5126,
			"count":845,
			"type":"VEC2"
		},
		{
			"bufferView":27,
			"componentType":5126,
			"count":845,
			"max":[
				1.42018723487854,
				0.8561583161354065,
				0.06609965115785599
			],
			"min":[
				-0.5090034604072571,
				-2.671250104904175,
				-1.1266252994537354
			],
			"type":"VEC3"
		},
		{
			"bufferView":28,
			"componentType":5126,
			"count":845,
			"type":"VEC3"
		},
		{
			"bufferView":29,
			"componentType":5126,
			"count":845,
			"type":"VEC2"
		},
		{
			"bufferView":30,
			"componentType":5126,
			"count":845,
			"max":[
				1.42018723487854,
				0.8561583161354065,
				0.06609965115785599
			],
			"min":[
				-0.5090034604072571,
				-2.671250104904175,
				-1.1266252994537354
			],
			"type":"VEC3"
		},
		{
			"bufferView":31,
			"componentType":5126,
			"count":845,
			"type":"VEC3"
		},
		{
			"bufferView":32,
			"componentType":5126,
			"count":845,
			"type":"VEC2"
		},
		{
			"bufferView":33,
			"componentType":5126,
			"count":845,
			"max":[
				1.42018723487854,
				0.8561583161354065,
				0.06609965115785599
			],
			"min":[
				-0.5090034604072571,
				-2.671250104904175,
				-1.1266252994537354
			],
			"type":"VEC3"
		},
		{
			"bufferView":34,
			"componentType":5126,
			"count":845,
			"type":"VEC3"
		},
		{
			"bufferView":35,
			"componentType":5126,
			"count":845,
			"type":"VEC2"
		},
		{
			"bufferView":36,
			"componentType":5126,
			"count":845,
			"max":[
				1.42018723487854,
				0.8561583161354065,
				0.06609965115785599
			],
			"min":[
				-0.5090034604072571,
				-2.671250104904175,
				-1.1266252994537354
			],
			"type":"VEC3"
		},
		{
			"bufferView":37,
			"componentType":5126,
			"count":845,
			"type":"VEC3"
		},
		{
			"bufferView":38,
			"componentType":5126,
			"count":845,
			"type":"VEC2"
		}
	],
	"bufferViews":[
		{
			"buffer":0,
			"byteLength":48,
			"byteOffset":0,
			"target":34962
		},
		{
			"buffer":0,
			"byteLength":48,
			"byteOffset":48,
			"target":34962
		},
		{
			"buffer":0,
			"byteLength":32,
			"byteOffset":96,
			"target":34962
		},
		{
			"buffer":0,
			"byteLength":12,
			"byteOffset":128,
			"target":34963
		},
		{
			"buffer":0,
			"byteLength":14340,
			"byteOffset":140,
			"target":34962
		},
		{
			"buffer":0,
			"byteLength":14340,
			"byteOffset":14480,
			"target":34962
		},
		{
			"buffer":0,
			"byteLength":9560,
			"byteOffset":28820,
			"target":34962
		},
		{
			"buffer":0,
			"byteLength":6198,
			"byteOffset":38380,
			"target":34963
		},
		{
			"buffer":0,
			"byteLength":10140,
			"byteOffset":44580,
			"target":34962
		},
		{
			"buffer":0,
			"byteLength":10140,
			"byteOffset":54720,
			"target":34962
		},
		{
			"buffer":0,
			"byteLength":6760,
			"byteOffset":64860,
			"target":34962
		},
		{
			"buffer":0,
			"byteLength":9216,
			"byteOffset":71620,
			"target":34963
		},
		{
			"buffer":0,
			"byteLength":10140,
			"byteOffset":80836,
			"target":34962
		},
		{
			"buffer":0,
			"byteLength":10140,
			"byteOffset":90976,
			"target":34962
		},
		{
			"buffer":0,
			"byteLength":6760,
			"byteOffset":101116,
			"target":34962
		},
		{
			"buffer":0,
			"byteLength":10140,
			"byteOffset":107876,
			"target":34962
		},
		{
			"buffer":0,
			"byteLength":10140,
			"byteOffset":118016,
			"target":34962
		},
		{
			"buffer":0,
			"byteLength":6760,
			"byteOffset":128156,
			"target":34962
		},
		{
			"buffer":0,
			"byteLength":10140,
			"byteOffset":134916,
			"target":34962
		},
		{
			"buffer":0,
			"byteLength":10140,
			"byteOffset":145056,
			"target":34962
		},
		{
			"buffer":0,
			"byteLength":6760,
			"byteOffset":155196,
			"target":34962
		},
		{
			"buffer":0,
			"byteLength":10140,
			"byteOffset":161956,
			"target":34962
		},
		{
			"buffer":0,
			"byteLength":10140,
			"byteOffset":172096,
			"target":34962
		},
		{
			"buffer":0,
			"byteLength":6760,
			"byteOffset":182236,
			"target":34962
		},
		{
			"buffer":0,
			"byteLength":10140,
			"byteOffset":188996,
			"target":34962
		},
		{
			"buffer":0,
			"byteLength":10140,
			"byteOffset":199136,
			"target":34962
		},
		{
			"buffer":0,
			"byteLength":6760,
			"byteOffset":209276,
			"target":34962
		},
		{
			"buffer":0,
			"byteLength":10140,
			"byteOffset":216036,
			"target":34962
		},
		{
			"buffer":0,
			"byteLength":10140,
			"byteOffset":226176,
			"target":34962
		},
		{
			"buffer":0,
			"byteLength":6760,
			"byteOffset":236316,
			"target":34962
		},
		{
			"buffer":0,
			"byteLength":10140,
			"byteOffset":243076,
			"target":34962
		},
		{
			"buffer":0,
			"byteLength":10140,
			"byteOffset":253216,
			"target":34962
		},
		{
			"buffer":0,
			"byteLength":6760,
			"byteOffset":263356,
			"target":34962
		},
		{
			"buffer":0,
			"byteLength":10140,
			"byteOffset":270116,
			"target":34962
		},
		{
			"buffer":0,
			"byteLength":10140,
			"byteOffset":280256,
			"target":34962
		},
		{
			"buffer":0,
			"byteLength":6760,
			"byteOffset":290396,
			"target":34962
		},
		{
			"buffer":0,
			"byteLength":10140,
			"byteOffset":297156,
			"target":34962
		},
		{
			"buffer":0,
			"byteLength":10140,
			"byteOffset":307296,
			"target":34962
		},
		{
			"buffer":0,
			"byteLength":6760,
			"byteOffset":317436,
			"target":34962
		}
	],
	"buffers":[
		{
			"byteLength":324196,
			"uri":"newsecuritycamera.bin"
		}
	]
}
