{
	"asset":{
		"generator":"Khronos glTF Blender I/O v4.5.47",
		"version":"2.0"
	},
	"scene":0,
	"scenes":[
		{
			"name":"Scene",
			"nodes":[
				0,
				1,
				2,
				3,
				4,
				5,
				6,
				7,
				8
			]
		}
	],
	"nodes":[
		{
			"mesh":0,
			"name":"Plane",
			"scale":[
				1.014662504196167,
				1.014662504196167,
				1.7506908178329468
			]
		},
		{
			"mesh":1,
			"name":"Cube",
			"scale":[
				-0.08893149346113205,
				-0.053243447095155716,
				-0.08893149346113205
			],
			"translation":[
				-0.9289037585258484,
				0.046808063983917236,
				-1.663348913192749
			]
		},
		{
			"mesh":2,
			"name":"Plane.001",
			"scale":[
				0.3827972412109375,
				0.3827972412109375,
				0.2394067794084549
			],
			"translation":[
				-0.3879946172237396,
				0.00939035415649414,
				1.084743857383728
			]
		},
		{
			"mesh":3,
			"name":"Text",
			"rotation":[
				-0.006470120511949062,
				0.6051990389823914,
				0.009696598164737225,
				0.7959889769554138
			],
			"scale":[
				0.10609951615333557,
				0.10609950870275497,
				0.10609954595565796
			],
			"translation":[
				-0.4420570731163025,
				0.01846795156598091,
				1.2747180461883545
			]
		},
		{
			"mesh":4,
			"name":"Cylinder",
			"scale":[
				0.03665250167250633,
				0.016819830983877182,
				0.03665250167250633
			],
			"translation":[
				-0.6012755632400513,
				0.19444586336612701,
				1.0994939804077148
			]
		},
		{
			"mesh":5,
			"name":"Cylinder.001",
			"scale":[
				0.03665250167250633,
				0.016819830983877182,
				0.03665250167250633
			],
			"translation":[
				0.31709378957748413,
				0.21795767545700073,
				0.2775285840034485
			]
		},
		{
			"mesh":6,
			"name":"Cylinder.002",
			"scale":[
				0.03665250167250633,
				0.016819830983877182,
				0.03665250167250633
			],
			"translation":[
				-0.38881397247314453,
				0.1911836862564087,
				-0.9390041828155518
			]
		},
		{
			"mesh":7,
			"name":"Cylinder.003",
			"scale":[
				0.03665250167250633,
				0.016819830983877182,
				0.03665250167250633
			],
			"translation":[
				0.014037132263183594,
				0.22944378852844238,
				-0.27858638763427734
			]
		},
		{
			"mesh":8,
			"name":"Plane.002",
			"rotation":[
				0.03909949213266373,
				0.7129971385002136,
				-0.0003813252260442823,
				0.7000758647918701
			],
			"scale":[
				0.29058805108070374,
				0.29058805108070374,
				0.18173784017562866
			],
			"translation":[
				0.18957547843456268,
				0.039439305663108826,
				-0.9273025393486023
			]
		}
	],
	"materials":[
		{
			"doubleSided":true,
			"name":"Material.002",
			"pbrMetallicRoughness":{
				"baseColorTexture":{
					"index":0
				},
				"metallicFactor":0,
				"roughnessFactor":0.5
			}
		},
		{
			"doubleSided":true,
			"name":"Material.003",
			"pbrMetallicRoughness":{
				"baseColorFactor":[
					0.15462327003479004,
					0.14597052335739136,
					0.1551598459482193,
					1
				],
				"roughnessFactor":0.5
			}
		},
		{
			"doubleSided":true,
			"name":"Material.005",
			"pbrMetallicRoughness":{
				"baseColorFactor":[
					0,
					0,
					0,
					1
				],
				"metallicFactor":0,
				"roughnessFactor":0.5
			}
		},
		{
			"doubleSided":true,
			"name":"Material.001",
			"pbrMetallicRoughness":{
				"baseColorFactor":[
					0.8010168075561523,
					0,
					0.004536209162324667,
					1
				],
				"metallicFactor":0,
				"roughnessFactor":0.5
			}
		},
		{
			"doubleSided":true,
			"name":"Material.016",
			"pbrMetallicRoughness":{
				"baseColorFactor":[
					0.7990978956222534,
					0.7758233547210693,
					0,
					1
				],
				"metallicFactor":0,
				"roughnessFactor":0.5
			}
		},
		{
			"doubleSided":true,
			"name":"Material.014",
			"pbrMetallicRoughness":{
				"baseColorFactor":[
					0,
					0.7991040349006653,
					0.011612425558269024,
					1
				],
				"metallicFactor":0,
				"roughnessFactor":0.5
			}
		},
		{
			"doubleSided":true,
			"name":"Material.013",
			"pbrMetallicRoughness":{
				"baseColorFactor":[
					0,
					0.03310452029109001,
					0.7991029620170593,
					1
				],
				"metallicFactor":0,
				"roughnessFactor":0.5
			}
		},
		{
			"doubleSided":true,
			"name":"Material.007",
			"pbrMetallicRoughness":{
				"baseColorFactor":[
					0,
					0.03310452029109001,
					0.7991029620170593,
					1
				],
				"metallicFactor":0,
				"roughnessFactor":0.5
			}
		},
		{
			"doubleSided":true,
			"name":"Material",
			"pbrMetallicRoughness":{
				"baseColorTexture":{
					"index":1
				},
				"metallicFactor":0,
				"roughnessFactor":0.5
			}
		}
	],
	"meshes":[
		{
			"name":"Plane",
			"primitives":[
				{
					"attributes":{
						"POSITION":0,
						"NORMAL":1,
						"TEXCOORD_0":2
					},
					"indices":3,
					"material":0
				}
			]
		},
		{
			"name":"Cube.002",
			"primitives":[
				{
					"attributes":{
						"POSITION":4,
						"NORMAL":5,
						"TEXCOORD_0":6
					},
					"indices":7,
					"material":1
				}
			]
		},
		{
			"name":"Plane.001",
			"primitives":[
				{
					"attributes":{
						"POSITION":8,
						"NORMAL":9,
						"TEXCOORD_0":10
					},
					"indices":3
				}
			]
		},
		{
			"name":"Text",
			"primitives":[
				{
					"attributes":{
						"POSITION":11,
						"NORMAL":12,
						"TEXCOORD_0":13
					},
					"indices":14,
					"material":2
				}
			]
		},
		{
			"name":"Cylinder",
			"primitives":[
				{
					"attributes":{
						"POSITION":15,
						"NORMAL":16,
						"TEXCOORD_0":17
					},
					"indices":18,
					"material":3
				}
			]
		},
		{
			"name":"Cylinder.001",
			"primitives":[
				{
					"attributes":{
						"POSITION":19,
						"NORMAL":20,
						"TEXCOORD_0":21
					},
					"indices":18,
					"material":4
				}
			]
		},
		{
			"name":"Cylinder.002",
			"primitives":[
				{
					"attributes":{
						"POSITION":22,
						"NORMAL":23,
						"TEXCOORD_0":24
					},
					"indices":18,
					"material":5
				}
			]
		},
		{
			"name":"Cylinder.008",
			"primitives":[
				{
					"attributes":{
						"POSITION":25,
						"NORMAL":26,
						"TEXCOORD_0":27
					},
					"indices":28,
					"material":6
				},
				{
					"attributes":{
						"POSITION":29,
						"NORMAL":30,
						"TEXCOORD_0":31
					},
					"indices":32,
					"material":7
				}
			]
		},
		{
			"name":"Plane.002",
			"primitives":[
				{
					"attributes":{
						"POSITION":33,
						"NORMAL":34,
						"TEXCOORD_0":35
					},
					"indices":3,
					"material":8
				}
			]
		}
	],
	"textures":[
		{
			"sampler":0,
			"source":0
		},
		{
			"sampler":0,
			"source":1
		}
	],
	"images":[
		{
			"mimeType":"image/jpeg",
			"name":"360_F_271257318_iENufuMNX2uZAxI0DrRF2UtPevmMOaew",
			"uri":"textures/360_F_271257318_iENufuMNX2uZAxI0DrRF2UtPevmMOaew.jpg"
		},
		{
			"mimeType":"image/png",
			"name":"Red and White Simple Minimalist Be Quiet Silence Sign Poster",
			"uri":"textures/Red%20and%20White%20Simple%20Minimalist%20Be%20Quiet%20Silence%20Sign%20Poster.png"
		}
	],
	"accessors":[
		{
			"bufferView":0,
			"componentType":5126,
			"count":4,
			"max":[
				1,
				0,
				1
			],
			"min":[
				-1,
				0,
				-1
			],
			"type":"VEC3"
		},
		{
			"bufferView":1,
			"componentType":5126,
			"count":4,
			"type":"VEC3"
		},
		{
			"bufferView":2,
			"componentType":5126,
			"count":4,
			"type":"VEC2"
		},
		{
			"bufferView":3,
			"componentType":5123,
			"count":6,
			"type":"SCALAR"
		},
		{
			"bufferView":4,
			"componentType":5126,
			"count":94,
			"max":[
				1,
				1,
				1
			],
			"min":[
				-21.884641647338867,
				-1,
				-38.42566680908203
			],
			"type":"VEC3"
		},
		{
			"bufferView":5,
			"componentType":5126,
			"count":94,
			"type":"VEC3"
		},
		{
			"bufferView":6,
			"componentType":5126,
			"count":94,
			"type":"VEC2"
		},
		{
			"bufferView":7,
			"componentType":5123,
			"count":204,
			"type":"SCALAR"
		},
		{
			"bufferView":8,
			"componentType":5126,
			"count":4,
			"max":[
				1,
				0,
				1
			],
			"min":[
				-1,
				0,
				-1
			],
			"type":"VEC3"
		},
		{
			"bufferView":9,
			"componentType":5126,
			"count":4,
			"type":"VEC3"
		},
		{
			"bufferView":10,
			"componentType":5126,
			"count":4,
			"type":"VEC2"
		},
		{
			"bufferView":11,
			"componentType":5126,
			"count":1071,
			"max":[
				3.634000301361084,
				0,
				1.0089999437332153
			],
			"min":[
				0.036000002175569534,
				0,
				-0.6820000410079956
			],
			"type":"VEC3"
		},
		{
			"bufferView":12,
			"componentType":5126,
			"count":1071,
			"type":"VEC3"
		},
		{
			"bufferView":13,
			"componentType":5126,
			"count":1071,
			"type":"VEC2"
		},
		{
			"bufferView":14,
			"componentType":5123,
			"count":3144,
			"type":"SCALAR"
		},
		{
			"bufferView":15,
			"componentType":5126,
			"count":1156,
			"max":[
				2.860875129699707,
				1,
				2.8608741760253906
			],
			"min":[
				-2.860873222351074,
				-16.90614128112793,
				-2.8608741760253906
			],
			"type":"VEC3"
		},
		{
			"bufferView":16,
			"componentType":5126,
			"count":1156,
			"type":"VEC3"
		},
		{
			"bufferView":17,
			"componentType":5126,
			"count":1156,
			"type":"VEC2"
		},
		{
			"bufferView":18,
			"componentType":5123,
			"count":2484,
			"type":"SCALAR"
		},
		{
			"bufferView":19,
			"componentType":5126,
			"count":1156,
			"max":[
				2.860875129699707,
				1,
				2.8608741760253906
			],
			"min":[
				-2.860873222351074,
				-16.90614128112793,
				-2.8608741760253906
			],
			"type":"VEC3"
		},
		{
			"bufferView":20,
			"componentType":5126,
			"count":1156,
			"type":"VEC3"
		},
		{
			"bufferView":21,
			"componentType":5126,
			"count":1156,
			"type":"VEC2"
		},
		{
			"bufferView":22,
			"componentType":5126,
			"count":1156,
			"max":[
				2.860875129699707,
				1,
				2.8608741760253906
			],
			"min":[
				-2.860873222351074,
				-16.90614128112793,
				-2.8608741760253906
			],
			"type":"VEC3"
		},
		{
			"bufferView":23,
			"componentType":5126,
			"count":1156,
			"type":"VEC3"
		},
		{
			"bufferView":24,
			"componentType":5126,
			"count":1156,
			"type":"VEC2"
		},
		{
			"bufferView":25,
			"componentType":5126,
			"count":788,
			"max":[
				2.860875129699707,
				1,
				2.8608741760253906
			],
			"min":[
				-2.860873222351074,
				-16.90614128112793,
				-2.8608741760253906
			],
			"type":"VEC3"
		},
		{
			"bufferView":26,
			"componentType":5126,
			"count":788,
			"type":"VEC3"
		},
		{
			"bufferView":27,
			"componentType":5126,
			"count":788,
			"type":"VEC2"
		},
		{
			"bufferView":28,
			"componentType":5123,
			"count":1842,
			"type":"SCALAR"
		},
		{
			"bufferView":29,
			"componentType":5126,
			"count":400,
			"max":[
				2.860875129699707,
				1,
				2.8608741760253906
			],
			"min":[
				-2.860873222351074,
				-16.90614128112793,
				-2.8608741760253906
			],
			"type":"VEC3"
		},
		{
			"bufferView":30,
			"componentType":5126,
			"count":400,
			"type":"VEC3"
		},
		{
			"bufferView":31,
			"componentType":5126,
			"count":400,
			"type":"VEC2"
		},
		{
			"bufferView":32,
			"componentType":5123,
			"count":642,
			"type":"SCALAR"
		},
		{
			"bufferView":33,
			"componentType":5126,
			"count":4,
			"max":[
				1.0264521837234497,
				0,
				1
			],
			"min":[
				-1,
				-0.08900029212236404,
				-3.523746967315674
			],
			"type":"VEC3"
		},
		{
			"bufferView":34,
			"componentType":5126,
			"count":4,
			"type":"VEC3"
		},
		{
			"bufferView":35,
			"componentType":5126,
			"count":4,
			"type":"VEC2"
		}
	],
	"bufferViews":[
		{
			"buffer":0,
			"byteLength":48,
			"byteOffset":0,
			"target":34962
		},
		{
			"buffer":0,
			"byteLength":48,
			"byteOffset":48,
			"target":34962
		},
		{
			"buffer":0,
			"byteLength":32,
			"byteOffset":96,
			"target":34962
		},
		{
			"buffer":0,
			"byteLength":12,
			"byteOffset":128,
			"target":34963
		},
		{
			"buffer":0,
			"byteLength":1128,
			"byteOffset":140,
			"target":34962
		},
		{
			"buffer":0,
			"byteLength":1128,
			"byteOffset":1268,
			"target":34962
		},
		{
			"buffer":0,
			"byteLength":752,
			"byteOffset":2396,
			"target":34962
		},
		{
			"buffer":0,
			"byteLength":408,
			"byteOffset":3148,
			"target":34963
		},
		{
			"buffer":0,
			"byteLength":48,
			"byteOffset":3556,
			"target":34962
		},
		{
			"buffer":0,
			"byteLength":48,
			"byteOffset":3604,
			"target":34962
		},
		{
			"buffer":0,
			"byteLength":32,
			"byteOffset":3652,
			"target":34962
		},
		{
			"buffer":0,
			"byteLength":12852,
			"byteOffset":3684,
			"target":34962
		},
		{
			"buffer":0,
			"byteLength":12852,
			"byteOffset":16536,
			"target":34962
		},
		{
			"buffer":0,
			"byteLength":8568,
			"byteOffset":29388,
			"target":34962
		},
		{
			"buffer":0,
			"byteLength":6288,
			"byteOffset":37956,
			"target":34963
		},
		{
			"buffer":0,
			"byteLength":13872,
			"byteOffset":44244,
			"target":34962
		},
		{
			"buffer":0,
			"byteLength":13872,
			"byteOffset":58116,
			"target":34962
		},
		{
			"buffer":0,
			"byteLength":9248,
			"byteOffset":71988,
			"target":34962
		},
		{
			"buffer":0,
			"byteLength":4968,
			"byteOffset":81236,
			"target":34963
		},
		{
			"buffer":0,
			"byteLength":13872,
			"byteOffset":86204,
			"target":34962
		},
		{
			"buffer":0,
			"byteLength":13872,
			"byteOffset":100076,
			"target":34962
		},
		{
			"buffer":0,
			"byteLength":9248,
			"byteOffset":113948,
			"target":34962
		},
		{
			"buffer":0,
			"byteLength":13872,
			"byteOffset":123196,
			"target":34962
		},
		{
			"buffer":0,
			"byteLength":13872,
			"byteOffset":137068,
			"target":34962
		},
		{
			"buffer":0,
			"byteLength":9248,
			"byteOffset":150940,
			"target":34962
		},
		{
			"buffer":0,
			"byteLength":9456,
			"byteOffset":160188,
			"target":34962
		},
		{
			"buffer":0,
			"byteLength":9456,
			"byteOffset":169644,
			"target":34962
		},
		{
			"buffer":0,
			"byteLength":6304,
			"byteOffset":179100,
			"target":34962
		},
		{
			"buffer":0,
			"byteLength":3684,
			"byteOffset":185404,
			"target":34963
		},
		{
			"buffer":0,
			"byteLength":4800,
			"byteOffset":189088,
			"target":34962
		},
		{
			"buffer":0,
			"byteLength":4800,
			"byteOffset":193888,
			"target":34962
		},
		{
			"buffer":0,
			"byteLength":3200,
			"byteOffset":198688,
			"target":34962
		},
		{
			"buffer":0,
			"byteLength":1284,
			"byteOffset":201888,
			"target":34963
		},
		{
			"buffer":0,
			"byteLength":48,
			"byteOffset":203172,
			"target":34962
		},
		{
			"buffer":0,
			"byteLength":48,
			"byteOffset":203220,
			"target":34962
		},
		{
			"buffer":0,
			"byteLength":32,
			"byteOffset":203268,
			"target":34962
		}
	],
	"samplers":[
		{
			"magFilter":9729,
			"minFilter":9987
		}
	],
	"buffers":[
		{
			"byteLength":203300,
			"uri":"noticeboard.bin"
		}
	]
}
