{
	"asset":{
		"generator":"Khronos glTF Blender I/O v4.5.47",
		"version":"2.0"
	},
	"scene":0,
	"scenes":[
		{
			"name":"Scene",
			"nodes":[
				3
			]
		}
	],
	"nodes":[
		{
			"mesh":0,
			"name":"defaultMaterial"
		},
		{
			"children":[
				0
			],
			"name":"pCube27"
		},
		{
			"children":[
				1
			],
			"name":"Collada visual scene group",
			"rotation":[
				0.70710688829422,
				0,
				0,
				0.7071066498756409
			]
		},
		{
			"children":[
				2
			],
			"name":"phone",
			"rotation":[
				-0.70710688829422,
				0,
				0,
				0.7071066498756409
			],
			"scale":[
				0.2663858234882355,
				0.26638585329055786,
				0.26638585329055786
			],
			"translation":[
				1.1433771848678589,
				10.47042179107666,
				-4.411563873291016
			]
		}
	],
	"materials":[
		{
			"doubleSided":true,
			"name":"lambert29",
			"normalTexture":{
				"index":0
			},
			"occlusionTexture":{
				"index":1
			},
			"pbrMetallicRoughness":{
				"baseColorTexture":{
					"index":2
				},
				"metallicRoughnessTexture":{
					"index":1
				}
			}
		}
	],
	"meshes":[
		{
			"name":"defaultMaterial",
			"primitives":[
				{
					"attributes":{
						"POSITION":0,
						"NORMAL":1,
						"TEXCOORD_0":2
					},
					"indices":3,
					"material":0
				}
			]
		}
	],
	"textures":[
		{
			"sampler":0,
			"source":0
		},
		{
			"sampler":0,
			"source":1
		},
		{
			"sampler":0,
			"source":2
		}
	],
	"images":[
		{
			"mimeType":"image/png",
			"name":"lambert29_normal",
			"uri":"textures/lambert29_normal.png"
		},
		{
			"mimeType":"image/png",
			"name":"lambert29_metallicRoughness",
			"uri":"textures/lambert29_metallicRoughness.png"
		},
		{
			"mimeType":"image/jpeg",
			"name":"lambert29_baseColor",
			"uri":"textures/lambert29_baseColor.jpg"
		}
	],
	"accessors":[
		{
			"bufferView":0,
			"componentType":5126,
			"count":1023,
			"max":[
				19.708803176879883,
				18.78948974609375,
				6.158265113830566
			],
			"min":[
				7.335999011993408,
				-18.272491455078125,
				-6.158202171325684
			],
			"type":"VEC3"
		},
		{
			"bufferView":1,
			"componentType":5126,
			"count":1023,
			"type":"VEC3"
		},
		{
			"bufferView":2,
			"componentType":5126,
			"count":1023,
			"type":"VEC2"
		},
		{
			"bufferView":3,
			"componentType":5123,
			"count":3912,
			"type":"SCALAR"
		}
	],
	"bufferViews":[
		{
			"buffer":0,
			"byteLength":12276,
			"byteOffset":0,
			"target":34962
		},
		{
			"buffer":0,
			"byteLength":12276,
			"byteOffset":12276,
			"target":34962
		},
		{
			"buffer":0,
			"byteLength":8184,
			"byteOffset":24552,
			"target":34962
		},
		{
			"buffer":0,
			"byteLength":7824,
			"byteOffset":32736,
			"target":34963
		}
	],
	"samplers":[
		{
			"magFilter":9729,
			"minFilter":9987
		}
	],
	"buffers":[
		{
			"byteLength":40560,
			"uri":"officephone.bin"
		}
	]
}
